<mxfile host="app.diagrams.net" modified="2024-06-20T16:23:24.776Z" agent="Mozilla/5.0 (Windows NT 10.0; Win64; x64; rv:127.0) Gecko/20100101 Firefox/127.0" version="24.5.5" etag="qurRHIutQi8eRWcyXcKH" type="github">
  <diagram name="Страница — 1" id="ZtmFXchyvuF18N7g2Z5R">
    <mxGraphModel>
      <root>
        <mxCell id="0" />
        <mxCell id="1" parent="0" />
      </root>
    </mxGraphModel>
  </diagram>
</mxfile>
